<svg xmlns="http://www.w3.org/2000/svg" xmlns:xlink="http://www.w3.org/1999/xlink" width="900" height="900" viewBox="150 100 128 128" role="img" aria-label="Altium schematic sheet" class="altium-sheet" data-renderer="altiumts">
  <rect x="150" y="100" width="128" height="128" fill="#fffcf8"/>
  <title>Altium schematic sheet</title>

  <g stroke-linecap="round" stroke-linejoin="round">
    <defs><clipPath id="altium-sheet-paper"><rect x="14" y="14" width="400" height="300"/></clipPath></defs>
    <g data-record="SheetBorder" fill="#fffef8" stroke="#334155" stroke-width="1"><rect x="14" y="14" width="400" height="300"/><rect x="24" y="24" width="380" height="280" fill="none"/><path d="M 87.3333 14 V 24 M 87.3333 304 V 314"/><path d="M 150.6667 14 V 24 M 150.6667 304 V 314"/><path d="M 214 14 V 24 M 214 304 V 314"/><path d="M 277.3333 14 V 24 M 277.3333 304 V 314"/><path d="M 340.6667 14 V 24 M 340.6667 304 V 314"/><path d="M 14 94 H 24 M 404 94 H 414"/><path d="M 14 164 H 24 M 404 164 H 414"/><path d="M 14 234 H 24 M 404 234 H 414"/></g>
    <g data-sheet-content="true" clip-path="url(#altium-sheet-paper)">
    <rect data-record="14" vector-effect="non-scaling-stroke" x="174" y="124" width="80" height="80" rx="0" fill="#ffffc2" stroke="#880000" stroke-width="1"/>
    <text data-record="34" x="0" y="0" fill="#1f2937" font-family="Arial" font-size="4" font-style="normal" font-weight="normal" text-decoration="none" text-anchor="start" dominant-baseline="text-after-edge" transform="translate(174 112) rotate(0)">U1</text>
    <g data-record="2"><line x1="264" y1="164" x2="264" y2="164" stroke="#840000" stroke-width="1"/><text x="0" y="0" fill="#840000" font-family="Arial" font-size="3" font-style="normal" font-weight="normal" text-decoration="none" text-anchor="start" dominant-baseline="text-after-edge" transform="translate(257 164) rotate(0)">5</text><text x="0" y="0" fill="#840000" font-family="Arial" font-size="3" font-style="normal" font-weight="normal" text-decoration="none" text-anchor="end" dominant-baseline="central" transform="translate(252 164) rotate(0)">RIGHT</text></g>
    <line data-record="13" vector-effect="non-scaling-stroke" x1="254" y1="164" x2="264" y2="164" stroke="#840000" stroke-width="1"/>
    <g data-record="2"><line x1="214" y1="114" x2="214" y2="114" stroke="#840000" stroke-width="1"/><text x="0" y="0" fill="#840000" font-family="Arial" font-size="3" font-style="normal" font-weight="normal" text-decoration="none" text-anchor="start" dominant-baseline="text-after-edge" transform="translate(214 121) rotate(-90)">6</text><text x="0" y="0" fill="#840000" font-family="Arial" font-size="3" font-style="normal" font-weight="normal" text-decoration="none" text-anchor="end" dominant-baseline="central" transform="translate(214 126) rotate(-90)">UP</text></g>
    <line data-record="13" vector-effect="non-scaling-stroke" x1="214" y1="124" x2="214" y2="114" stroke="#840000" stroke-width="1"/>
    <g data-record="2"><line x1="164" y1="164" x2="164" y2="164" stroke="#840000" stroke-width="1"/><text x="0" y="0" fill="#840000" font-family="Arial" font-size="3" font-style="normal" font-weight="normal" text-decoration="none" text-anchor="end" dominant-baseline="text-after-edge" transform="translate(171 164) rotate(0)">17</text><text x="0" y="0" fill="#840000" font-family="Arial" font-size="3" font-style="normal" font-weight="normal" text-decoration="none" text-anchor="start" dominant-baseline="central" transform="translate(176 164) rotate(0)">LEFT</text></g>
    <line data-record="13" vector-effect="non-scaling-stroke" x1="174" y1="164" x2="164" y2="164" stroke="#840000" stroke-width="1"/>
    <g data-record="2"><line x1="214" y1="214" x2="214" y2="214" stroke="#840000" stroke-width="1"/><text x="0" y="0" fill="#840000" font-family="Arial" font-size="3" font-style="normal" font-weight="normal" text-decoration="none" text-anchor="end" dominant-baseline="text-after-edge" transform="translate(214 207) rotate(-90)">18</text><text x="0" y="0" fill="#840000" font-family="Arial" font-size="3" font-style="normal" font-weight="normal" text-decoration="none" text-anchor="start" dominant-baseline="central" transform="translate(214 202) rotate(-90)">DOWN</text></g>
    <line data-record="13" vector-effect="non-scaling-stroke" x1="214" y1="204" x2="214" y2="214" stroke="#840000" stroke-width="1"/>
    </g>
  </g>
</svg>